<?xml version="1.0" encoding="UTF-8" standalone="no"?>
<!-- Created with Inkscape (http://www.inkscape.org/) -->

<svg
   xmlns:dc="http://purl.org/dc/elements/1.1/"
   xmlns:cc="http://creativecommons.org/ns#"
   xmlns:rdf="http://www.w3.org/1999/02/22-rdf-syntax-ns#"
   xmlns:svg="http://www.w3.org/2000/svg"
   xmlns="http://www.w3.org/2000/svg"
   xmlns:sodipodi="http://sodipodi.sourceforge.net/DTD/sodipodi-0.dtd"
   xmlns:inkscape="http://www.inkscape.org/namespaces/inkscape"
   width="128"
   height="128"
   viewBox="0 0 33.866666 33.866667"
   version="1.1"
   id="svg8"
   inkscape:version="0.92.0 r15299"
   sodipodi:docname="icon.svg"
   inkscape:export-filename="icon-256x256.png"
   inkscape:export-xdpi="191.99998"
   inkscape:export-ydpi="191.99998">
  <defs
     id="defs2" />
  <sodipodi:namedview
     id="base"
     pagecolor="#ffffff"
     bordercolor="#7d7d7d"
     borderopacity="0.49019608"
     inkscape:pageopacity="0.0"
     inkscape:pageshadow="2"
     inkscape:zoom="2"
     inkscape:cx="110.07214"
     inkscape:cy="-9.883312"
     inkscape:document-units="px"
     inkscape:current-layer="svg8"
     showgrid="false"
     inkscape:snap-bbox="true"
     inkscape:bbox-paths="true"
     inkscape:bbox-nodes="true"
     inkscape:object-paths="true"
     units="px"
     borderlayer="true"
     inkscape:showpageshadow="false"
     inkscape:pagecheckerboard="false"
     showguides="true"
     inkscape:guide-bbox="true">
    <inkscape:grid
       type="xygrid"
       id="grid4499"
       spacingx="5.2916667"
       spacingy="5.2916667"
       empspacing="20"
       dotted="true" />
  </sodipodi:namedview>
  <metadata
     id="metadata5">
    <rdf:RDF>
      <cc:Work
         rdf:about="">
        <dc:format>image/svg+xml</dc:format>
        <dc:type
           rdf:resource="http://purl.org/dc/dcmitype/StillImage" />
        <dc:title />
        <cc:license
           rdf:resource="http://creativecommons.org/publicdomain/zero/1.0/" />
      </cc:Work>
      <cc:License
         rdf:about="http://creativecommons.org/publicdomain/zero/1.0/">
        <cc:permits
           rdf:resource="http://creativecommons.org/ns#Reproduction" />
        <cc:permits
           rdf:resource="http://creativecommons.org/ns#Distribution" />
        <cc:permits
           rdf:resource="http://creativecommons.org/ns#DerivativeWorks" />
      </cc:License>
    </rdf:RDF>
  </metadata>
  <rect
     style="opacity:1;fill:#fcfcfc;fill-opacity:1;stroke:none;stroke-width:0.26458332;stroke-linecap:square;stroke-linejoin:miter;stroke-miterlimit:4;stroke-dasharray:none;stroke-dashoffset:0;stroke-opacity:1"
     id="rect4507"
     width="33.866665"
     height="33.866669"
     x="0"
     y="4.5664214e-007" />
  <path
     style="opacity:1;fill:#2e3436;fill-opacity:1;stroke:none;stroke-width:1.58749998;stroke-linecap:round;stroke-linejoin:round;stroke-miterlimit:3.86369991;stroke-dasharray:none;stroke-opacity:1"
     d="m 9.2604166,5.2916671 -2.38125,2.38125 0.79375,0.7937498 1.5875,-1.5874998 1.5875004,1.5874998 1.5875,-1.5874998 1.5875,1.5874998 0.79375,-0.7937498 -2.38125,-2.38125 -1.5875,1.5875 z m -3.175,2.38125 -0.79375,0.7937498 2.38125,2.3812501 1.5875,-1.5875001 1.5875004,1.5875001 2.38125,-2.3812501 -0.79375,-0.7937498 -1.5875,1.5874998 -1.5875004,-1.5874998 -1.5875,1.5874998 z"
     id="path4733"
     inkscape:connector-curvature="0" />
  <path
     style="font-style:normal;font-variant:normal;font-weight:600;font-stretch:normal;font-size:medium;line-height:20px;font-family:'Segoe UI';-inkscape-font-specification:'Segoe UI, Semi-Bold';font-variant-ligatures:normal;font-variant-caps:normal;font-variant-numeric:normal;font-feature-settings:normal;text-align:start;letter-spacing:0px;word-spacing:0px;writing-mode:lr-tb;text-anchor:start;fill:#000000;fill-opacity:1;stroke:none;stroke-width:0.26458332px;stroke-linecap:butt;stroke-linejoin:miter;stroke-opacity:1"
     d="m 9.0299669,21.381547 c -0.4459151,0 -0.7988172,0.140889 -1.0587064,0.422662 -0.2598891,0.281774 -0.3898337,0.659298 -0.3898337,1.132571 0,0.440443 0.1272089,0.798134 0.3816267,1.073068 0.2557856,0.274935 0.5956933,0.412403 1.019723,0.412403 0.4322367,0 0.7776157,-0.139521 1.0361375,-0.418559 0.258521,-0.279038 0.387782,-0.658612 0.387782,-1.138724 0,-0.441811 -0.126525,-0.799502 -0.379575,-1.073068 C 9.7754384,21.518333 9.4430539,21.381547 9.0299669,21.381547 Z m 3.2930691,0 c -0.454122,0 -0.828909,0.14636 -1.124362,0.439077 -0.294085,0.29135 -0.441128,0.664769 -0.441128,1.120259 0,0.445916 0.134732,0.80429 0.404196,1.075121 0.269464,0.270832 0.621682,0.406247 1.056655,0.406247 0.376155,0 0.71743,-0.08344 1.023826,-0.250315 V 22.77469 h -1.105897 v 0.410352 h 0.619631 v 0.69965 c -0.147727,0.07797 -0.32281,0.11695 -0.52525,0.11695 -0.295453,0 -0.529353,-0.09643 -0.7017,-0.289299 -0.172348,-0.194233 -0.258522,-0.460277 -0.258522,-0.798132 0,-0.328281 0.09985,-0.595694 0.299557,-0.802237 0.201072,-0.206545 0.458225,-0.309815 0.77146,-0.309815 0.311867,0 0.580647,0.07523 0.80634,0.225693 v -0.502681 c -0.222957,-0.09575 -0.497893,-0.143624 -0.824806,-0.143624 z m 2.929909,0 c -0.454123,0 -0.82891,0.14636 -1.124363,0.439077 -0.294085,0.29135 -0.441128,0.664769 -0.441128,1.120259 0,0.445916 0.134732,0.80429 0.404196,1.075121 0.269464,0.270832 0.621683,0.406247 1.056655,0.406247 0.376156,0 0.717431,-0.08344 1.023827,-0.250315 V 22.77469 h -1.105897 v 0.410352 h 0.619631 v 0.69965 c -0.147727,0.07797 -0.32281,0.11695 -0.52525,0.11695 -0.295453,0 -0.529354,-0.09643 -0.701701,-0.289299 -0.172348,-0.194233 -0.258522,-0.460277 -0.258522,-0.798132 0,-0.328281 0.09985,-0.595694 0.299557,-0.802237 0.201072,-0.206545 0.458225,-0.309815 0.77146,-0.309815 0.311868,0 0.580648,0.07523 0.806341,0.225693 v -0.502681 c -0.222958,-0.09575 -0.497893,-0.143624 -0.824806,-0.143624 z m -9.9222952,0.04924 v 0.414456 h 0.843272 v 2.527762 h 0.488318 v -2.527762 h 0.8453237 v -0.414456 z m 11.4754752,0 v 2.942221 h 1.629094 V 23.960605 H 17.294443 V 21.43079 Z m 2.051756,0 v 2.942218 h 1.651665 V 23.960602 H 19.3462 v -0.869944 h 1.011516 v -0.4124 H 19.3462 v -0.833012 h 1.097689 V 21.43079 Z m -9.8525352,0.379575 c 0.2776711,0 0.4951573,0.09575 0.6524586,0.287247 0.1586692,0.191497 0.2380038,0.463014 0.2380038,0.814546 0,0.341961 -0.081386,0.608004 -0.244159,0.798134 -0.1627728,0.19013 -0.3850464,0.285194 -0.6668209,0.285194 -0.2653605,0 -0.4801111,-0.09985 -0.6442516,-0.299556 -0.1641405,-0.199704 -0.2462108,-0.463014 -0.2462108,-0.789928 0,-0.328281 0.084122,-0.592956 0.2523661,-0.794028 0.1696118,-0.201074 0.3891498,-0.301609 0.6586138,-0.301609 z m -2.6118861,3.822423 -1.1017931,2.942217 h 0.5334566 l 0.2544179,-0.74889 h 1.1571906 l 0.2646766,0.74889 H 8.0369167 L 6.9433305,25.632788 Z m 2.0497048,0 v 2.942217 h 0.8145474 c 0.5060999,2e-6 0.9096121,-0.137466 1.2105361,-0.412403 0.300925,-0.276302 0.451387,-0.641514 0.451387,-1.095637 0,-0.956118 -0.542348,-1.434177 -1.6270432,-1.434177 z m 3.0119785,0 v 2.942217 h 0.451387 v -1.899924 c 0,-0.266731 -0.0055,-0.458911 -0.01642,-0.576544 h 0.0082 c 0.02736,0.131313 0.05335,0.229112 0.07797,0.2934 l 0.880203,2.183068 h 0.336488 l 0.878152,-2.199481 c 0.02325,-0.05608 0.04993,-0.14841 0.08002,-0.276987 h 0.0082 c -0.01915,0.225694 -0.02873,0.416506 -0.02873,0.572438 v 1.90403 h 0.484208 v -2.942214 h -0.662717 l -0.787875,1.95122 c -0.03146,0.07523 -0.0725,0.190128 -0.123105,0.344694 h -0.01026 c -0.01778,-0.07386 -0.05608,-0.186024 -0.114899,-0.336487 l -0.773512,-1.959427 z m 3.879872,0 v 2.942217 h 0.502681 v -2.942214 z m 1.224899,0 v 2.942217 h 0.471904 v -1.928649 c 0,-0.206545 -0.0055,-0.341276 -0.01641,-0.404197 h 0.01231 c 0.02325,0.05882 0.05266,0.115581 0.08822,0.170297 l 1.405453,2.162549 h 0.533457 v -2.942214 h -0.46985 v 1.895823 c 0,0.186025 0.0068,0.31802 0.02052,0.395988 h -0.0082 c -0.01641,-0.03283 -0.05334,-0.09301 -0.110791,-0.180553 l -1.358275,-2.111258 z m 4.382552,0 v 2.942217 h 0.943808 c 0.302293,0 0.552607,-0.07797 0.750943,-0.2339 0.198336,-0.155932 0.297505,-0.359739 0.297505,-0.611422 0,-0.202439 -0.06087,-0.36658 -0.182608,-0.492421 -0.120368,-0.127207 -0.281773,-0.202438 -0.484213,-0.225694 v -0.0082 c 0.166876,-0.05198 0.297504,-0.139519 0.391885,-0.262625 0.09438,-0.123105 0.141572,-0.268097 0.141572,-0.434973 0,-0.199705 -0.08344,-0.361792 -0.250315,-0.486266 -0.165508,-0.124474 -0.390517,-0.18671 -0.675028,-0.18671 z m 3.309484,0 -1.101794,2.942217 h 0.533457 l 0.254418,-0.74889 h 1.157191 l 0.264676,0.74889 h 0.535509 L 24.80182,25.632788 Z m 2.049704,0 v 2.942217 h 0.486267 v -1.194121 h 0.196968 c 0.06155,0 0.116949,0.0075 0.166193,0.02257 0.04924,0.01504 0.09438,0.03898 0.135416,0.07181 0.0424,0.03283 0.08344,0.07523 0.123105,0.127209 0.04103,0.05061 0.08275,0.112162 0.125157,0.184657 l 0.469852,0.787874 H 28.575 l -0.523198,-0.826856 c -0.0424,-0.06429 -0.08139,-0.120373 -0.116949,-0.168244 -0.0342,-0.04924 -0.06908,-0.09301 -0.10464,-0.131312 -0.03556,-0.0383 -0.07318,-0.07523 -0.112847,-0.110796 -0.03967,-0.03693 -0.08617,-0.07045 -0.139519,-0.100535 v -0.0082 c 0.09985,-0.02599 0.189445,-0.06292 0.26878,-0.110796 0.0807,-0.04787 0.149094,-0.105323 0.205176,-0.172347 0.05745,-0.06839 0.101222,-0.145675 0.131312,-0.23185 0.03146,-0.08754 0.04719,-0.183289 0.04719,-0.287244 0,-0.132682 -0.02462,-0.248265 -0.07386,-0.346749 -0.04787,-0.09985 -0.114898,-0.182606 -0.201072,-0.248262 -0.08617,-0.06702 -0.187393,-0.11695 -0.30366,-0.149778 -0.116266,-0.03283 -0.243475,-0.04924 -0.381626,-0.04924 z m -4.872921,0.391884 h 0.354953 c 0.336489,0 0.504733,0.125842 0.504733,0.377525 0,0.146357 -0.04856,0.259887 -0.145675,0.34059 -0.09575,0.07933 -0.228429,0.119003 -0.398041,0.119003 h -0.31597 z m 5.359188,0.0041 h 0.41035 c 0.166877,0 0.294769,0.03967 0.383679,0.119003 0.08891,0.07934 0.133365,0.189445 0.133365,0.330334 0,0.07797 -0.013,0.14841 -0.03898,0.211331 -0.02599,0.06292 -0.06224,0.116267 -0.108743,0.160035 -0.04651,0.04377 -0.101905,0.07729 -0.166192,0.100537 -0.06292,0.02326 -0.131997,0.03488 -0.207228,0.03488 h -0.406247 z m -17.8584902,0.01847 h 0.4082996 c 0.7126436,0 1.0689656,0.344011 1.0689656,1.032032 0,0.344696 -0.09575,0.611424 -0.287246,0.800186 -0.1901298,0.188762 -0.4568582,0.283141 -0.8001854,0.283141 H 8.9294308 Z m -2.2774497,0.02258 h 0.00821 c 0.013679,0.08481 0.026673,0.146356 0.038983,0.184657 l 0.4082995,1.173605 H 6.2067525 l 0.404196,-1.173605 c 0.015046,-0.04514 0.028725,-0.106691 0.041035,-0.184657 z m 17.8584889,0 h 0.0082 c 0.01368,0.08481 0.02668,0.146356 0.03898,0.184657 l 0.408299,1.173605 h -0.900711 l 0.404196,-1.173605 c 0.01505,-0.04514 0.02873,-0.106691 0.04103,-0.184657 z m -3.081737,1.183863 h 0.352902 c 0.422662,0 0.633993,0.152515 0.633993,0.457543 0,0.147725 -0.04993,0.263992 -0.14978,0.348797 -0.09848,0.08344 -0.238687,0.125158 -0.420609,0.125158 h -0.416506 z"
     id="path4495"
     inkscape:connector-curvature="0" />
</svg>
